<?xml version="1.0" standalone="no"?>
<!DOCTYPE svg PUBLIC "-//W3C//DTD SVG 20010904//EN"
 "http://www.w3.org/TR/2001/REC-SVG-20010904/DTD/svg10.dtd">
<svg version="1.0" xmlns="http://www.w3.org/2000/svg"
 width="24.000000pt" height="24.000000pt" viewBox="0 0 24.000000 24.000000"
 preserveAspectRatio="xMidYMid meet">

<g transform="translate(0.000000,24.000000) scale(0.100000,-0.100000)"
fill="#515151" stroke="none">
<path d="M0 120 l0 -120 120 0 120 0 0 120 0 120 -120 0 -120 0 0 -120z m99
80 c15 8 27 8 42 0 16 -9 26 -8 45 5 l25 16 -3 -73 -3 -73 -42 -23 -43 -23
-42 23 -43 23 -3 73 -3 73 25 -16 c19 -13 29 -14 45 -5z"/>
<path d="M40 191 c0 -19 38 -33 60 -21 14 8 26 8 40 0 22 -12 60 2 60 21 0 6
-7 6 -20 -1 -14 -8 -26 -8 -40 0 -14 8 -26 8 -40 0 -14 -8 -26 -8 -40 0 -13 7
-20 7 -20 1z"/>
<path d="M41 125 c3 -43 6 -48 41 -66 38 -19 38 -19 76 0 35 18 38 23 41 66 2
44 1 46 -19 35 -14 -8 -26 -8 -40 0 -14 8 -26 8 -40 0 -14 -8 -26 -8 -40 0
-20 11 -21 9 -19 -35z m98 1 c17 -20 -13 -43 -34 -26 -12 10 -13 16 -4 26 6 8
15 14 19 14 4 0 13 -6 19 -14z m-49 -51 c27 -14 33 -14 60 0 16 8 33 15 37 15
4 -1 -9 -10 -30 -21 -37 -19 -37 -19 -75 0 -20 11 -33 20 -29 21 4 0 21 -7 37
-15z"/>
</g>
</svg>
